<?xml version="1.0" encoding="utf-8"?>
<!-- Generator: Adobe Illustrator 22.0.1, SVG Export Plug-In . SVG Version: 6.00 Build 0)  -->
<svg version="1.1" id="Layer_1" xmlns="http://www.w3.org/2000/svg" xmlns:xlink="http://www.w3.org/1999/xlink" x="0px" y="0px"
	 viewBox="0 0 22 30" style="enable-background:new 0 0 22 30;" xml:space="preserve">
<style type="text/css">
	.st0{fill:#3F9ED8;}
	.st1{fill:#FFFFFF;}
	.st2{fill:none;stroke:#FFFFFF;stroke-miterlimit:10;}
</style>
<g>
	<polygon class="st0" points="7.9,23.5 0.5,23.5 0.5,0.5 14.7,0.5 21.5,7.3 21.5,23.5 14.1,23.5 11,29 	"/>
	<path class="st1" d="M14.5,1L21,7.5V23h-6.6h-0.6l-0.3,0.5L11,28l-2.5-4.4L8.2,23H7.6H1V1H14.5 M14.9,0H0v24h7.6l3.4,6l3.4-6H22
		V7.1L14.9,0L14.9,0z"/>
</g>
<g>
	<line class="st2" x1="4.5" y1="6.1" x2="14" y2="6.1"/>
</g>
<g>
	<line class="st2" x1="4.5" y1="10" x2="17.5" y2="10"/>
</g>
<g>
	<line class="st2" x1="4.5" y1="14" x2="15.4" y2="14"/>
</g>
<g>
	<line class="st2" x1="4.5" y1="18" x2="17.5" y2="18"/>
</g>
</svg>
