<?xml version="1.0" encoding="utf-8"?>
<!-- Generator: Adobe Illustrator 22.0.1, SVG Export Plug-In . SVG Version: 6.00 Build 0)  -->
<svg version="1.1" id="Layer_1" xmlns="http://www.w3.org/2000/svg" xmlns:xlink="http://www.w3.org/1999/xlink" x="0px" y="0px"
	 viewBox="0 0 35 35.1" style="enable-background:new 0 0 35 35.1;" xml:space="preserve">
<style type="text/css">
	.st0{fill:#FFFFFF;}
	.st1{fill:#3F9ED8;}
	.st2{fill:none;stroke:#FFFFFF;stroke-miterlimit:10;}
</style>
<circle class="st0" cx="17.6" cy="17.5" r="17.5"/>
<g>
	<polygon class="st1" points="14.5,28.5 7.1,28.5 7.1,5.5 21.3,5.5 28.1,12.3 28.1,28.5 20.7,28.5 17.6,34 	"/>
	<path class="st0" d="M21.1,6l6.5,6.5V28H21h-0.6l-0.3,0.5L17.6,33l-2.5-4.4L14.8,28h-0.6H7.6V6H21.1 M21.5,5H6.6v24h7.6l3.4,6
		l3.4-6h7.6V12.1L21.5,5L21.5,5z"/>
</g>
<g>
	<line class="st2" x1="11.1" y1="11.1" x2="20.6" y2="11.1"/>
</g>
<g>
	<line class="st2" x1="11.1" y1="15" x2="24.1" y2="15"/>
</g>
<g>
	<line class="st2" x1="11.1" y1="19" x2="22" y2="19"/>
</g>
<g>
	<line class="st2" x1="11.1" y1="23" x2="24.1" y2="23"/>
</g>
</svg>
